<mxfile host="app.diagrams.net" agent="Mozilla/5.0 (Windows NT 10.0; Win64; x64) AppleWebKit/537.36 (KHTML, like Gecko) Chrome/132.0.0.0 Safari/537.36" version="26.0.8">
  <diagram name="第 1 页" id="hGmQhAkQVx8E9nlvOrwL">
    <mxGraphModel dx="989" dy="621" grid="1" gridSize="10" guides="1" tooltips="1" connect="1" arrows="1" fold="1" page="1" pageScale="1" pageWidth="827" pageHeight="1169" math="0" shadow="0">
      <root>
        <mxCell id="0" />
        <mxCell id="1" parent="0" />
        <mxCell id="F7dwuFVo1csS7DEQl2De-1" value="DPO" style="rounded=1;whiteSpace=wrap;html=1;" vertex="1" parent="1">
          <mxGeometry x="510" y="240" width="120" height="60" as="geometry" />
        </mxCell>
        <mxCell id="F7dwuFVo1csS7DEQl2De-2" value="RDPO" style="rounded=1;whiteSpace=wrap;html=1;" vertex="1" parent="1">
          <mxGeometry x="700" y="240" width="120" height="60" as="geometry" />
        </mxCell>
        <mxCell id="F7dwuFVo1csS7DEQl2De-3" value="&lt;h1 style=&quot;margin-top: 0px;&quot;&gt;Response 1&lt;/h1&gt;&lt;p&gt;&lt;b&gt;Lorem ipsum dolor sit amet, &lt;/b&gt;consectetur adipisicing elit, sed&amp;nbsp;&lt;br&gt;&lt;b style=&quot;background-color: transparent; color: light-dark(rgb(0, 0, 0), rgb(255, 255, 255));&quot;&gt;do eiusmod tempor incididunt ut &lt;br&gt;&lt;/b&gt;&lt;span style=&quot;background-color: transparent; color: light-dark(rgb(0, 0, 0), rgb(255, 255, 255));&quot;&gt;labore et dolore magna aliqua.&lt;/span&gt;&lt;/p&gt;" style="text;html=1;whiteSpace=wrap;overflow=hidden;rounded=0;" vertex="1" parent="1">
          <mxGeometry x="70" y="330" width="190" height="120" as="geometry" />
        </mxCell>
        <mxCell id="F7dwuFVo1csS7DEQl2De-4" value="&lt;h1 style=&quot;margin-top: 0px;&quot;&gt;Response 2&lt;/h1&gt;&lt;p&gt;Lorem ipsum dolor sit amet, &lt;br&gt;&lt;b&gt;consectetur adipisicing elit, sed&lt;/b&gt; &lt;br&gt;do eiusmod tempor incididunt ut &lt;br&gt;&lt;b&gt;labore et dolore magna aliqua.&lt;/b&gt;&lt;/p&gt;" style="text;html=1;whiteSpace=wrap;overflow=hidden;rounded=0;" vertex="1" parent="1">
          <mxGeometry x="290" y="330" width="200" height="120" as="geometry" />
        </mxCell>
        <mxCell id="F7dwuFVo1csS7DEQl2De-5" value="EQUAL SCORE" style="text;html=1;align=center;verticalAlign=middle;whiteSpace=wrap;rounded=0;" vertex="1" parent="1">
          <mxGeometry x="520" y="390" width="110" height="30" as="geometry" />
        </mxCell>
        <mxCell id="F7dwuFVo1csS7DEQl2De-6" value="4,0&lt;br&gt;3,1&lt;br&gt;1,3&lt;br&gt;0,4" style="text;html=1;align=center;verticalAlign=middle;whiteSpace=wrap;rounded=0;" vertex="1" parent="1">
          <mxGeometry x="710" y="390" width="110" height="30" as="geometry" />
        </mxCell>
      </root>
    </mxGraphModel>
  </diagram>
</mxfile>
